# xmcd
#
# Track frame offsets:
#	150
#	17118
#	30552
#	44675
#	63331
#	78372
#	96910
#	111492
#	123866
#	139184
#	154666
#	168892
#	184075
#	197951
#	213582
#
# Disc length: 3105 seconds
# Revision: 1
# Processed by: cddbd v1.5.2PL0 Copyright (c) Steve Scherf et al.
# Submitted via: dBpowerAMP V12.0
#
DISCID=d20c1f0f
DTITLE=Jon Wolfe - It All Happened in a Honky Tonk [Deluxe Edition]
DYEAR=2012
DGENRE=Country
TTITLE0=It All Happened In a Honky Tonk
TTITLE1=Let a Country Boy Love You
TTITLE2=Sweet Little Song and Dance
TTITLE3=The Only Time You Call
TTITLE4=I Don't Dance
TTITLE5=That Girl In Texas
TTITLE6=I'll Take My Chances
TTITLE7=His New Baby
TTITLE8=You Might Have Told Me
TTITLE9=Two Out Of Seven
TTITLE10=I Can't Take My Eyes Off You
TTITLE11=That's Not Very Texas Of You
TTITLE12=Something To See
TTITLE13=Play Me Something I Can Drink To
TTITLE14=If She's Looking For Love
EXTD=
EXTT0=
EXTT1=
EXTT2=
EXTT3=
EXTT4=
EXTT5=
EXTT6=
EXTT7=
EXTT8=
EXTT9=
EXTT10=
EXTT11=
EXTT12=
EXTT13=
EXTT14=
PLAYORDER=
